<svg width="800" height="480" viewBox="0 0 800 480" xmlns="http://www.w3.org/2000/svg" font-family="Helvetica Neue, Helvetica, Arial, sans-serif">
<rect width="800" height="480" fill="white"/>
<line x1="44.0" y1="7.0" x2="789.0" y2="7.0" stroke="black" stroke-width="1"/>
<line x1="44.0" y1="38.0" x2="789.0" y2="38.0" stroke="black" stroke-width="1"/>
<line x1="44.0" y1="59.0" x2="789.0" y2="59.0" stroke="black" stroke-width="1"/>
<line x1="44.0" y1="110.0" x2="789.0" y2="110.0" stroke="black" stroke-width="1"/>
<line x1="44.0" y1="161.0" x2="789.0" y2="161.0" stroke="black" stroke-width="1"/>
<line x1="44.0" y1="212.0" x2="789.0" y2="212.0" stroke="black" stroke-width="1"/>
<line x1="44.0" y1="263.0" x2="789.0" y2="263.0" stroke="black" stroke-width="1"/>
<line x1="44.0" y1="314.0" x2="789.0" y2="314.0" stroke="black" stroke-width="1"/>
<line x1="44.0" y1="365.0" x2="789.0" y2="365.0" stroke="black" stroke-width="1"/>
<line x1="44.0" y1="416.0" x2="789.0" y2="416.0" stroke="black" stroke-width="1"/>
<line x1="44.0" y1="467.0" x2="789.0" y2="467.0" stroke="black" stroke-width="1"/>
<line x1="44.0" y1="7.0" x2="44.0" y2="467.0" stroke="black" stroke-width="1"/>
<line x1="193.0" y1="7.0" x2="193.0" y2="467.0" stroke="black" stroke-width="1"/>
<line x1="342.0" y1="7.0" x2="342.0" y2="467.0" stroke="black" stroke-width="1"/>
<line x1="491.0" y1="7.0" x2="491.0" y2="467.0" stroke="black" stroke-width="1"/>
<line x1="640.0" y1="7.0" x2="640.0" y2="467.0" stroke="black" stroke-width="1"/>
<line x1="789.0" y1="7.0" x2="789.0" y2="467.0" stroke="black" stroke-width="1"/>
<line x1="118.5" y1="38.0" x2="118.5" y2="467.0" stroke="black" stroke-width="0.75" stroke-dasharray="1.5 2.5"/>
<line x1="267.5" y1="38.0" x2="267.5" y2="467.0" stroke="black" stroke-width="0.75" stroke-dasharray="1.5 2.5"/>
<line x1="416.5" y1="38.0" x2="416.5" y2="467.0" stroke="black" stroke-width="0.75" stroke-dasharray="1.5 2.5"/>
<line x1="565.5" y1="38.0" x2="565.5" y2="467.0" stroke="black" stroke-width="0.75" stroke-dasharray="1.5 2.5"/>
<line x1="714.5" y1="38.0" x2="714.5" y2="467.0" stroke="black" stroke-width="0.75" stroke-dasharray="1.5 2.5"/>
<rect x="44.0" y="7.0" width="745.0" height="460.0" fill="none" stroke="black" stroke-width="1.5"/>
<text x="118.5" y="27.5" text-anchor="middle" font-size="13" font-weight="bold" fill="black">MA</text>
<text x="81.25" y="52.5" text-anchor="middle" font-size="10" font-weight="bold" fill="black">T</text>
<text x="155.75" y="52.5" text-anchor="middle" font-size="10" font-weight="bold" fill="black">S</text>
<text x="267.5" y="27.5" text-anchor="middle" font-size="13" font-weight="bold" fill="black">TI</text>
<text x="230.25" y="52.5" text-anchor="middle" font-size="10" font-weight="bold" fill="black">T</text>
<text x="304.75" y="52.5" text-anchor="middle" font-size="10" font-weight="bold" fill="black">S</text>
<text x="416.5" y="27.5" text-anchor="middle" font-size="13" font-weight="bold" fill="black">KE</text>
<text x="379.25" y="52.5" text-anchor="middle" font-size="10" font-weight="bold" fill="black">T</text>
<text x="453.75" y="52.5" text-anchor="middle" font-size="10" font-weight="bold" fill="black">S</text>
<text x="565.5" y="27.5" text-anchor="middle" font-size="13" font-weight="bold" fill="black">TO</text>
<text x="528.25" y="52.5" text-anchor="middle" font-size="10" font-weight="bold" fill="black">T</text>
<text x="602.75" y="52.5" text-anchor="middle" font-size="10" font-weight="bold" fill="black">S</text>
<text x="714.5" y="27.5" text-anchor="middle" font-size="13" font-weight="bold" fill="black">PE</text>
<text x="677.25" y="52.5" text-anchor="middle" font-size="10" font-weight="bold" fill="black">T</text>
<text x="751.75" y="52.5" text-anchor="middle" font-size="10" font-weight="bold" fill="black">S</text>
<text x="38" y="62.5" text-anchor="end" font-size="9.5" fill="black">8:00</text>
<text x="38" y="113.5" text-anchor="end" font-size="9.5" fill="black">9:00</text>
<text x="38" y="164.5" text-anchor="end" font-size="9.5" fill="black">10:00</text>
<text x="38" y="215.5" text-anchor="end" font-size="9.5" fill="black">11:00</text>
<text x="38" y="266.5" text-anchor="end" font-size="9.5" fill="black">12:00</text>
<text x="38" y="317.5" text-anchor="end" font-size="9.5" fill="black">13:00</text>
<text x="38" y="368.5" text-anchor="end" font-size="9.5" fill="black">14:00</text>
<text x="38" y="419.5" text-anchor="end" font-size="9.5" fill="black">15:00</text>
<text x="38" y="470.5" text-anchor="end" font-size="9.5" fill="black">16:00</text>
<rect x="47.0" y="102.5" width="68.5" height="36.25" fill="black"/>
<text x="81.25" y="114.5" text-anchor="middle" font-size="7" fill="white">8:50 - 9:35</text>
<text x="81.25" y="129.5" text-anchor="middle" font-size="11" font-weight="bold" fill="white">MA</text>
<rect x="47.0" y="162.0" width="68.5" height="36.25" fill="black"/>
<text x="81.25" y="174.0" text-anchor="middle" font-size="7" fill="white">10:00 - 10:45</text>
<text x="81.25" y="189.0" text-anchor="middle" font-size="11" font-weight="bold" fill="white">ÄI</text>
<rect x="47.0" y="200.25" width="68.5" height="36.25" fill="black"/>
<text x="81.25" y="212.25" text-anchor="middle" font-size="7" fill="white">10:45 - 11:30</text>
<text x="81.25" y="227.25" text-anchor="middle" font-size="11" font-weight="bold" fill="white">YM</text>
<rect x="47.0" y="238.5" width="68.5" height="36.25" fill="white" stroke="black" stroke-width="0.75"/>
<text x="81.25" y="259.625" text-anchor="middle" font-size="8" fill="black">Ruokatunti</text>
<rect x="47.0" y="276.75" width="68.5" height="36.25" fill="black"/>
<text x="81.25" y="288.75" text-anchor="middle" font-size="7" fill="white">12:15 - 13:00</text>
<text x="81.25" y="303.75" text-anchor="middle" font-size="11" font-weight="bold" fill="white">ET</text>
<rect x="47.0" y="327.75" width="68.5" height="36.25" fill="black"/>
<text x="81.25" y="339.75" text-anchor="middle" font-size="7" fill="white">13:15 - 14:00</text>
<text x="81.25" y="354.75" text-anchor="middle" font-size="11" font-weight="bold" fill="white">KÄ</text>
<rect x="47.0" y="378.75" width="68.5" height="36.25" fill="black"/>
<text x="81.25" y="390.75" text-anchor="middle" font-size="7" fill="white">14:15 - 15:00</text>
<text x="81.25" y="405.75" text-anchor="middle" font-size="11" font-weight="bold" fill="white">KÄ</text>
<rect x="121.5" y="60.0" width="68.5" height="36.25" fill="black"/>
<text x="155.75" y="72.0" text-anchor="middle" font-size="7" fill="white">8:00 - 8:45</text>
<text x="155.75" y="87.0" text-anchor="middle" font-size="11" font-weight="bold" fill="white">ET</text>
<rect x="121.5" y="102.5" width="68.5" height="36.25" fill="black"/>
<text x="155.75" y="114.5" text-anchor="middle" font-size="7" fill="white">8:50 - 9:35</text>
<text x="155.75" y="129.5" text-anchor="middle" font-size="11" font-weight="bold" fill="white">ÄI</text>
<rect x="121.5" y="162.0" width="68.5" height="36.25" fill="black"/>
<text x="155.75" y="174.0" text-anchor="middle" font-size="7" fill="white">10:00 - 10:45</text>
<text x="155.75" y="189.0" text-anchor="middle" font-size="11" font-weight="bold" fill="white">KU</text>
<rect x="121.5" y="200.25" width="68.5" height="36.25" fill="black"/>
<text x="155.75" y="212.25" text-anchor="middle" font-size="7" fill="white">10:45 - 11:30</text>
<text x="155.75" y="227.25" text-anchor="middle" font-size="11" font-weight="bold" fill="white">KU</text>
<rect x="121.5" y="238.5" width="68.5" height="36.25" fill="white" stroke="black" stroke-width="0.75"/>
<text x="155.75" y="259.625" text-anchor="middle" font-size="8" fill="black">Ruokatunti</text>
<rect x="121.5" y="276.75" width="68.5" height="36.25" fill="black"/>
<text x="155.75" y="288.75" text-anchor="middle" font-size="7" fill="white">12:15 - 13:00</text>
<text x="155.75" y="303.75" text-anchor="middle" font-size="11" font-weight="bold" fill="white">YM</text>
<rect x="196.0" y="60.0" width="68.5" height="36.25" fill="black"/>
<text x="230.25" y="72.0" text-anchor="middle" font-size="7" fill="white">8:00 - 8:45</text>
<text x="230.25" y="87.0" text-anchor="middle" font-size="11" font-weight="bold" fill="white">ET</text>
<rect x="196.0" y="102.5" width="68.5" height="36.25" fill="black"/>
<text x="230.25" y="114.5" text-anchor="middle" font-size="7" fill="white">8:50 - 9:35</text>
<text x="230.25" y="129.5" text-anchor="middle" font-size="11" font-weight="bold" fill="white">MU</text>
<rect x="196.0" y="162.0" width="68.5" height="36.25" fill="black"/>
<text x="230.25" y="174.0" text-anchor="middle" font-size="7" fill="white">10:00 - 10:45</text>
<text x="230.25" y="189.0" text-anchor="middle" font-size="11" font-weight="bold" fill="white">ÄI</text>
<rect x="196.0" y="200.25" width="68.5" height="36.25" fill="black"/>
<text x="230.25" y="212.25" text-anchor="middle" font-size="7" fill="white">10:45 - 11:30</text>
<text x="230.25" y="227.25" text-anchor="middle" font-size="11" font-weight="bold" fill="white">ÄI</text>
<rect x="196.0" y="238.5" width="68.5" height="36.25" fill="white" stroke="black" stroke-width="0.75"/>
<text x="230.25" y="259.625" text-anchor="middle" font-size="8" fill="black">Ruokatunti</text>
<rect x="196.0" y="276.75" width="68.5" height="36.25" fill="black"/>
<text x="230.25" y="288.75" text-anchor="middle" font-size="7" fill="white">12:15 - 13:00</text>
<text x="230.25" y="303.75" text-anchor="middle" font-size="11" font-weight="bold" fill="white">EN</text>
<rect x="196.0" y="327.75" width="68.5" height="36.25" fill="black"/>
<text x="230.25" y="339.75" text-anchor="middle" font-size="7" fill="white">13:15 - 14:00</text>
<text x="230.25" y="354.75" text-anchor="middle" font-size="11" font-weight="bold" fill="white">MA</text>
<rect x="270.5" y="60.0" width="68.5" height="36.25" fill="black"/>
<text x="304.75" y="72.0" text-anchor="middle" font-size="7" fill="white">8:00 - 8:45</text>
<text x="304.75" y="87.0" text-anchor="middle" font-size="11" font-weight="bold" fill="white">KÄ</text>
<rect x="270.5" y="102.5" width="68.5" height="36.25" fill="black"/>
<text x="304.75" y="114.5" text-anchor="middle" font-size="7" fill="white">8:50 - 9:35</text>
<text x="304.75" y="129.5" text-anchor="middle" font-size="11" font-weight="bold" fill="white">MA</text>
<rect x="270.5" y="162.0" width="68.5" height="36.25" fill="black"/>
<text x="304.75" y="174.0" text-anchor="middle" font-size="7" fill="white">10:00 - 10:45</text>
<text x="304.75" y="189.0" text-anchor="middle" font-size="11" font-weight="bold" fill="white">LI</text>
<rect x="270.5" y="200.25" width="68.5" height="36.25" fill="black"/>
<text x="304.75" y="212.25" text-anchor="middle" font-size="7" fill="white">10:45 - 11:30</text>
<text x="304.75" y="227.25" text-anchor="middle" font-size="11" font-weight="bold" fill="white">LI</text>
<rect x="270.5" y="238.5" width="68.5" height="36.25" fill="white" stroke="black" stroke-width="0.75"/>
<text x="304.75" y="259.625" text-anchor="middle" font-size="8" fill="black">Ruokatunti</text>
<rect x="270.5" y="276.75" width="68.5" height="36.25" fill="black"/>
<text x="304.75" y="288.75" text-anchor="middle" font-size="7" fill="white">12:15 - 13:00</text>
<text x="304.75" y="303.75" text-anchor="middle" font-size="11" font-weight="bold" fill="white">EN</text>
<rect x="270.5" y="327.75" width="68.5" height="36.25" fill="black"/>
<text x="304.75" y="339.75" text-anchor="middle" font-size="7" fill="white">13:15 - 14:00</text>
<text x="304.75" y="354.75" text-anchor="middle" font-size="11" font-weight="bold" fill="white">YH</text>
<rect x="345.0" y="162.0" width="68.5" height="36.25" fill="black"/>
<text x="379.25" y="174.0" text-anchor="middle" font-size="7" fill="white">10:00 - 10:45</text>
<text x="379.25" y="189.0" text-anchor="middle" font-size="11" font-weight="bold" fill="white">LI</text>
<rect x="345.0" y="200.25" width="68.5" height="36.25" fill="black"/>
<text x="379.25" y="212.25" text-anchor="middle" font-size="7" fill="white">10:45 - 11:30</text>
<text x="379.25" y="227.25" text-anchor="middle" font-size="11" font-weight="bold" fill="white">ÄI</text>
<rect x="345.0" y="238.5" width="68.5" height="36.25" fill="white" stroke="black" stroke-width="0.75"/>
<text x="379.25" y="259.625" text-anchor="middle" font-size="8" fill="black">Ruokatunti</text>
<rect x="345.0" y="276.75" width="68.5" height="36.25" fill="black"/>
<text x="379.25" y="288.75" text-anchor="middle" font-size="7" fill="white">12:15 - 13:00</text>
<text x="379.25" y="303.75" text-anchor="middle" font-size="11" font-weight="bold" fill="white">YM</text>
<rect x="419.5" y="60.0" width="68.5" height="36.25" fill="black"/>
<text x="453.75" y="72.0" text-anchor="middle" font-size="7" fill="white">8:00 - 8:45</text>
<text x="453.75" y="87.0" text-anchor="middle" font-size="11" font-weight="bold" fill="white">KÄ</text>
<rect x="419.5" y="102.5" width="68.5" height="36.25" fill="black"/>
<text x="453.75" y="114.5" text-anchor="middle" font-size="7" fill="white">8:50 - 9:35</text>
<text x="453.75" y="129.5" text-anchor="middle" font-size="11" font-weight="bold" fill="white">RU</text>
<rect x="419.5" y="162.0" width="68.5" height="36.25" fill="black"/>
<text x="453.75" y="174.0" text-anchor="middle" font-size="7" fill="white">10:00 - 10:45</text>
<text x="453.75" y="189.0" text-anchor="middle" font-size="11" font-weight="bold" fill="white">MA</text>
<rect x="419.5" y="200.25" width="68.5" height="36.25" fill="black"/>
<text x="453.75" y="212.25" text-anchor="middle" font-size="7" fill="white">10:45 - 11:30</text>
<text x="453.75" y="227.25" text-anchor="middle" font-size="11" font-weight="bold" fill="white">ÄI</text>
<rect x="419.5" y="238.5" width="68.5" height="36.25" fill="white" stroke="black" stroke-width="0.75"/>
<text x="453.75" y="259.625" text-anchor="middle" font-size="8" fill="black">Ruokatunti</text>
<rect x="419.5" y="276.75" width="68.5" height="36.25" fill="black"/>
<text x="453.75" y="288.75" text-anchor="middle" font-size="7" fill="white">12:15 - 13:00</text>
<text x="453.75" y="303.75" text-anchor="middle" font-size="11" font-weight="bold" fill="white">ÄI</text>
<rect x="419.5" y="327.75" width="68.5" height="36.25" fill="black"/>
<text x="453.75" y="339.75" text-anchor="middle" font-size="7" fill="white">13:15 - 14:00</text>
<text x="453.75" y="354.75" text-anchor="middle" font-size="11" font-weight="bold" fill="white">MU</text>
<rect x="494.0" y="102.5" width="68.5" height="36.25" fill="black"/>
<text x="528.25" y="114.5" text-anchor="middle" font-size="7" fill="white">8:50 - 9:35</text>
<text x="528.25" y="129.5" text-anchor="middle" font-size="11" font-weight="bold" fill="white">MA</text>
<rect x="494.0" y="162.0" width="68.5" height="36.25" fill="black"/>
<text x="528.25" y="174.0" text-anchor="middle" font-size="7" fill="white">10:00 - 10:45</text>
<text x="528.25" y="189.0" text-anchor="middle" font-size="11" font-weight="bold" fill="white">ÄI</text>
<rect x="494.0" y="200.25" width="68.5" height="36.25" fill="black"/>
<text x="528.25" y="212.25" text-anchor="middle" font-size="7" fill="white">10:45 - 11:30</text>
<text x="528.25" y="227.25" text-anchor="middle" font-size="11" font-weight="bold" fill="white">KU</text>
<rect x="494.0" y="238.5" width="68.5" height="36.25" fill="white" stroke="black" stroke-width="0.75"/>
<text x="528.25" y="259.625" text-anchor="middle" font-size="8" fill="black">Ruokatunti</text>
<rect x="494.0" y="276.75" width="68.5" height="36.25" fill="black"/>
<text x="528.25" y="288.75" text-anchor="middle" font-size="7" fill="white">12:15 - 13:00</text>
<text x="528.25" y="303.75" text-anchor="middle" font-size="11" font-weight="bold" fill="white">KU</text>
<rect x="568.5" y="102.5" width="68.5" height="36.25" fill="black"/>
<text x="602.75" y="114.5" text-anchor="middle" font-size="7" fill="white">8:50 - 9:35</text>
<text x="602.75" y="129.5" text-anchor="middle" font-size="11" font-weight="bold" fill="white">YH</text>
<rect x="568.5" y="162.0" width="68.5" height="36.25" fill="black"/>
<text x="602.75" y="174.0" text-anchor="middle" font-size="7" fill="white">10:00 - 10:45</text>
<text x="602.75" y="189.0" text-anchor="middle" font-size="11" font-weight="bold" fill="white">MA</text>
<rect x="568.5" y="200.25" width="68.5" height="36.25" fill="black"/>
<text x="602.75" y="212.25" text-anchor="middle" font-size="7" fill="white">10:45 - 11:30</text>
<text x="602.75" y="227.25" text-anchor="middle" font-size="11" font-weight="bold" fill="white">ÄI</text>
<rect x="568.5" y="238.5" width="68.5" height="36.25" fill="white" stroke="black" stroke-width="0.75"/>
<text x="602.75" y="259.625" text-anchor="middle" font-size="8" fill="black">Ruokatunti</text>
<rect x="568.5" y="276.75" width="68.5" height="36.25" fill="black"/>
<text x="602.75" y="288.75" text-anchor="middle" font-size="7" fill="white">12:15 - 13:00</text>
<text x="602.75" y="303.75" text-anchor="middle" font-size="11" font-weight="bold" fill="white">YM</text>
<rect x="643.0" y="60.0" width="68.5" height="36.25" fill="black"/>
<text x="677.25" y="72.0" text-anchor="middle" font-size="7" fill="white">8:00 - 8:45</text>
<text x="677.25" y="87.0" text-anchor="middle" font-size="11" font-weight="bold" fill="white">LI</text>
<rect x="643.0" y="102.5" width="68.5" height="36.25" fill="black"/>
<text x="677.25" y="114.5" text-anchor="middle" font-size="7" fill="white">8:50 - 9:35</text>
<text x="677.25" y="129.5" text-anchor="middle" font-size="11" font-weight="bold" fill="white">EN</text>
<rect x="643.0" y="162.0" width="68.5" height="36.25" fill="black"/>
<text x="677.25" y="174.0" text-anchor="middle" font-size="7" fill="white">10:00 - 10:45</text>
<text x="677.25" y="189.0" text-anchor="middle" font-size="11" font-weight="bold" fill="white">ÄI</text>
<rect x="643.0" y="200.25" width="68.5" height="36.25" fill="black"/>
<text x="677.25" y="212.25" text-anchor="middle" font-size="7" fill="white">10:45 - 11:30</text>
<text x="677.25" y="227.25" text-anchor="middle" font-size="11" font-weight="bold" fill="white">MA</text>
<rect x="643.0" y="238.5" width="68.5" height="36.25" fill="white" stroke="black" stroke-width="0.75"/>
<text x="677.25" y="259.625" text-anchor="middle" font-size="8" fill="black">Ruokatunti</text>
<rect x="717.5" y="162.0" width="68.5" height="36.25" fill="black"/>
<text x="751.75" y="174.0" text-anchor="middle" font-size="7" fill="white">10:00 - 10:45</text>
<text x="751.75" y="189.0" text-anchor="middle" font-size="11" font-weight="bold" fill="white">YM</text>
<rect x="717.5" y="200.25" width="68.5" height="36.25" fill="black"/>
<text x="751.75" y="212.25" text-anchor="middle" font-size="7" fill="white">10:45 - 11:30</text>
<text x="751.75" y="227.25" text-anchor="middle" font-size="11" font-weight="bold" fill="white">ÄI</text>
<rect x="717.5" y="238.5" width="68.5" height="36.25" fill="white" stroke="black" stroke-width="0.75"/>
<text x="751.75" y="259.625" text-anchor="middle" font-size="8" fill="black">Ruokatunti</text>
<rect x="717.5" y="276.75" width="68.5" height="36.25" fill="black"/>
<text x="751.75" y="288.75" text-anchor="middle" font-size="7" fill="white">12:15 - 13:00</text>
<text x="751.75" y="303.75" text-anchor="middle" font-size="11" font-weight="bold" fill="white">EN</text>
<rect x="717.5" y="327.75" width="68.5" height="36.25" fill="black"/>
<text x="751.75" y="339.75" text-anchor="middle" font-size="7" fill="white">13:15 - 14:00</text>
<text x="751.75" y="354.75" text-anchor="middle" font-size="11" font-weight="bold" fill="white">RU</text>
</svg>
